name C:\Users\u0101727\Documents\MyRepositories\upper-imu-dc\Results\main_tracking\Case_45\FLX01_orientations_groundFrame.mot
datacolumns 13
datarows 40
range 0.50600000 0.74000000
endheader 
time	radius_imu_[0][0]	radius_imu_[0][1]	radius_imu_[0][2]	radius_imu_[1][0]	radius_imu_[1][1]	radius_imu_[1][2]	radius_imu_[2][0]	radius_imu_[2][1]	radius_imu_[2][2]	radius_imu_x	radius_imu_y	radius_imu_z	
          0.50600000	          0.68711772	         -0.01778289	          0.72632845	         -0.13467172	          0.97925918	          0.15137695	         -0.71395572	         -0.20182968	          0.67047148	         -0.22205375	          0.81296514	          0.02587464	
          0.51200000	          0.68625599	         -0.02013337	          0.72708140	         -0.13427963	          0.97892802	          0.15384703	         -0.71485782	         -0.20321067	          0.66909172	         -0.22600584	          0.81406122	          0.02932957	
          0.51800000	          0.68538048	         -0.02249589	          0.72783758	         -0.13387885	          0.97859182	          0.15631543	         -0.71577235	         -0.20457760	          0.66769600	         -0.22996996	          0.81516328	          0.03281071	
          0.52400000	          0.68448221	         -0.02487400	          0.72860510	         -0.13346728	          0.97825095	          0.15878148	         -0.71670816	         -0.20592804	          0.66627551	         -0.23394834	          0.81628319	          0.03632389	
          0.53000000	          0.68355875	         -0.02726838	          0.72938595	         -0.13304431	          0.97790562	          0.16124454	         -0.71766750	         -0.20726077	          0.66482805	         -0.23794121	          0.81742392	          0.03987065	
          0.53600000	          0.68260921	         -0.02967927	          0.73018067	         -0.13261014	          0.97755578	          0.16370476	         -0.71865097	         -0.20857574	          0.66335281	         -0.24194941	          0.81858633	          0.04345179	
          0.54200000	          0.68163226	         -0.03210732	          0.73099014	         -0.13216553	          0.97720115	          0.16616312	         -0.71965946	         -0.20987384	          0.66184835	         -0.24597531	          0.81977181	          0.04706879	
          0.54800000	          0.68062598	         -0.03455376	          0.73181576	         -0.13171159	          0.97684126	          0.16862150	         -0.72069434	         -0.21115679	          0.66031241	         -0.25002283	          0.82098251	          0.05072408	
          0.55400000	          0.67958794	         -0.03702043	          0.73265935	         -0.13124968	          0.97647544	          0.17108256	         -0.72175741	         -0.21242695	          0.65874201	         -0.25409736	          0.82222116	          0.05442102	
          0.56000000	          0.67851544	         -0.03950969	          0.73352286	         -0.13078134	          0.97610283	          0.17354971	         -0.72285063	         -0.21368726	          0.65713371	         -0.25820559	          0.82349078	          0.05816393	
          0.56600000	          0.67740578	         -0.04202445	          0.73440817	         -0.13030817	          0.97572243	          0.17602706	         -0.72397596	         -0.21494113	          0.65548388	         -0.26235540	          0.82479427	          0.06195794	
          0.57200000	          0.67625650	         -0.04456804	          0.73531683	         -0.12983180	          0.97533304	          0.17851935	         -0.72513506	         -0.21619238	          0.65378896	         -0.26655565	          0.82613406	          0.06580888	
          0.57800000	          0.67506566	         -0.04714417	          0.73624981	         -0.12935379	          0.97493335	          0.18103193	         -0.72632909	         -0.21744515	          0.65204575	         -0.27081602	          0.82751172	          0.06972322	
          0.58400000	          0.67383210	         -0.04975688	          0.73720727	         -0.12887555	          0.97452188	          0.18357070	         -0.72755852	         -0.21870382	          0.65025167	         -0.27514684	          0.82892769	          0.07370789	
          0.59000000	          0.67255559	         -0.05241048	          0.73818840	         -0.12839830	          0.97409703	          0.18614203	         -0.72882292	         -0.21997300	          0.64840499	         -0.27955889	          0.83038094	          0.07777019	
          0.59600000	          0.67123710	         -0.05510946	          0.73919125	         -0.12792298	          0.97365708	          0.18875273	         -0.73012086	         -0.22125738	          0.64650499	         -0.28406320	          0.83186875	          0.08191761	
          0.60200000	          0.66987884	         -0.05785848	          0.74021263	         -0.12745022	          0.97320021	          0.19140999	         -0.73144978	         -0.22256177	          0.64455216	         -0.28867087	          0.83338654	          0.08615774	
          0.60800000	          0.66848448	         -0.06066224	          0.74124800	         -0.12698030	          0.97272449	          0.19412128	         -0.73280591	         -0.22389096	          0.64254832	         -0.29339288	          0.83492772	          0.09049805	
          0.61400000	          0.66705910	         -0.06352548	          0.74229150	         -0.12651310	          0.97222789	          0.19689430	         -0.73418430	         -0.22524973	          0.64049666	         -0.29823991	          0.83648367	          0.09494583	
          0.62000000	          0.66560922	         -0.06645290	          0.74333598	         -0.12604813	          0.97170831	          0.19973691	         -0.73557885	         -0.22664283	          0.63840175	         -0.30322213	          0.83804376	          0.09950797	
          0.62600000	          0.66414268	         -0.06944911	          0.74437311	         -0.12558448	          0.97116356	          0.20265705	         -0.73698239	         -0.22807490	          0.63626944	         -0.30834915	          0.83959556	          0.10419089	
          0.63200000	          0.66266846	         -0.07251862	          0.74539356	         -0.12512091	          0.97059138	          0.20566267	         -0.73838694	         -0.22955049	          0.63410670	         -0.31362985	          0.84112502	          0.10900050	
          0.63800000	          0.66119641	         -0.07566584	          0.74638729	         -0.12465583	          0.96998943	          0.20876167	         -0.73978391	         -0.23107399	          0.63192134	         -0.31907236	          0.84261695	          0.11394210	
          0.64400000	          0.65973694	         -0.07889506	          0.74734379	         -0.12418736	          0.96935530	          0.21196179	         -0.74116440	         -0.23264967	          0.62972173	         -0.32468404	          0.84405536	          0.11902042	
          0.65000000	          0.65830063	         -0.08221045	          0.74825244	         -0.12371335	          0.96868653	          0.21527058	         -0.74251955	         -0.23428157	          0.62751643	         -0.33047144	          0.84542396	          0.12423964	
          0.65600000	          0.65689800	         -0.08561611	          0.74910273	         -0.12323145	          0.96798057	          0.21869527	         -0.74384073	         -0.23597350	          0.62531390	         -0.33644030	          0.84670658	          0.12960339	
          0.66200000	          0.65553906	         -0.08911602	          0.74988457	         -0.12273912	          0.96723486	          0.22224275	         -0.74511989	         -0.23772898	          0.62312221	         -0.34259562	          0.84788758	          0.13511485	
          0.66800000	          0.65423315	         -0.09271411	          0.75058849	         -0.12223366	          0.96644675	          0.22591949	         -0.74634973	         -0.23955120	          0.62094872	         -0.34894161	          0.84895224	          0.14077677	
          0.67400000	          0.65298862	         -0.09641421	          0.75120581	         -0.12171226	          0.96561358	          0.22973143	         -0.74752391	         -0.24144297	          0.61879989	         -0.35548176	          0.84988698	          0.14659153	
          0.68000000	          0.65181263	         -0.10022006	          0.75172883	         -0.12117200	          0.96473267	          0.23368401	         -0.74863719	         -0.24340668	          0.61668108	         -0.36221885	          0.85067971	          0.15256119	
          0.68600000	          0.65071101	         -0.10413533	          0.75215093	         -0.12060993	          0.96380130	          0.23778203	         -0.74968555	         -0.24544425	          0.61459636	         -0.36915501	          0.85132000	          0.15868758	
          0.69200000	          0.64968804	         -0.10816355	          0.75246668	         -0.12002308	          0.96281676	          0.24202964	         -0.75066631	         -0.24755713	          0.61254841	         -0.37629172	          0.85179927	          0.16497227	
          0.69800000	          0.64874630	         -0.11230817	          0.75267198	         -0.11940854	          0.96177633	          0.24643031	         -0.75157823	         -0.24974621	          0.61053828	         -0.38362999	          0.85211104	          0.17141678	
          0.70400000	          0.64788655	         -0.11657251	          0.75276415	         -0.11876352	          0.96067729	          0.25098678	         -0.75242159	         -0.25201188	          0.60856534	         -0.39117039	          0.85225104	          0.17802256	
          0.71000000	          0.64710758	         -0.12095974	          0.75274200	         -0.11808545	          0.95951696	          0.25570104	         -0.75319825	         -0.25435396	          0.60662711	         -0.39891318	          0.85221740	          0.18479116	
          0.71600000	          0.64640618	         -0.12547291	          0.75260587	         -0.11737202	          0.95829267	          0.26057432	         -0.75391171	         -0.25677172	          0.60471929	         -0.40685845	          0.85201064	          0.19172425	
          0.72200000	          0.64577714	         -0.13011486	          0.75235764	         -0.11662127	          0.95700176	          0.26560706	         -0.75456701	         -0.25926387	          0.60283570	         -0.41500618	          0.85163373	          0.19882371	
          0.72800000	          0.64521323	         -0.13488827	          0.75200069	         -0.11583169	          0.95564165	          0.27079894	         -0.75517078	         -0.26182857	          0.60096830	         -0.42335640	          0.85109205	          0.20609171	
          0.73400000	          0.64470537	         -0.13979560	          0.75153987	         -0.11500225	          0.95420977	          0.27614888	         -0.75573108	         -0.26446344	          0.59910736	         -0.43190925	          0.85039322	          0.21353077	
          0.74000000	          0.64424273	         -0.14483907	          0.75098132	         -0.11413246	          0.95270362	          0.28165509	         -0.75625729	         -0.26716559	          0.59724154	         -0.44066508	          0.84954695	          0.22114372	
